<svg xmlns="http://www.w3.org/2000/svg" xmlns:svg="http://www.w3.org/2000/svg" id="svg4316" width="45" height="45" version="1.1"><metadata id="metadata4321"/><g id="layer1" transform="translate(0,-1007.3622)"><path style="color:#000;fill:#fff;fill-opacity:1;fill-rule:nonzero;stroke:#8bc34a;stroke-width:1.74663651;stroke-linecap:round;stroke-linejoin:round;stroke-miterlimit:4;stroke-opacity:1;stroke-dasharray:none;stroke-dashoffset:0;marker:none;visibility:visible;display:inline;overflow:visible;enable-background:accumulate" id="path5399" d="m 22.166071,1009.3123 c -5.613738,0 -10.131173,4.5175 -10.131173,10.1312 l 0,18.6956 c 0,5.6138 4.517435,10.1365 10.131173,10.1365 l 0.6677,0 c 5.613732,0 10.131173,-4.5227 10.131173,-10.1365 l 0,-18.6956 c 0,-5.6137 -4.517441,-10.1312 -10.131173,-10.1312 l -0.6677,0 z m 0.336476,3.3649 c 4.044517,0 7.223786,3.1791 7.223786,7.1291 l 0,14.9628 c 0,3.95 -3.179269,7.1292 -7.223786,7.1292 -4.044516,0 -7.229038,-3.1792 -7.229038,-7.1292 l 0,-14.9628 c 0,-3.95 3.184522,-7.1291 7.229038,-7.1291 z"/><rect id="rect5401" width="33.962" height="24.946" x="5.519" y="1025.467" rx=".798" ry=".798" style="color:#000;fill:#fff;fill-opacity:1;fill-rule:nonzero;stroke:#8bc34a;stroke-width:1.74663651;stroke-linecap:round;stroke-linejoin:round;stroke-miterlimit:4;stroke-opacity:1;stroke-dasharray:none;stroke-dashoffset:0;marker:none;visibility:visible;display:inline;overflow:visible;enable-background:accumulate"/><path id="path5403" d="m 11.109664,1043.5389 c 2.495006,2.065 6.666898,3.4226 11.392966,3.4226 4.725665,0 8.89263,-1.3579 11.387713,-3.4226 z" style="color:#000;fill:#fff;fill-opacity:1;fill-rule:nonzero;stroke:#8bc34a;stroke-width:1.74663651;stroke-linecap:round;stroke-linejoin:round;stroke-miterlimit:4;stroke-opacity:1;stroke-dasharray:none;stroke-dashoffset:0;marker:none;visibility:visible;display:inline;overflow:visible;enable-background:accumulate"/><path id="path5405" d="m 316.87315,407.66223 a 9.388834,9.388834 0 1 1 -18.77767,0" transform="matrix(0.1819265,0,0,0.1819265,-43.957774,964.33702)" style="color:#000;fill:none;stroke:#8bc34a;stroke-width:9.60078144;stroke-linecap:round;stroke-linejoin:round;stroke-miterlimit:4;stroke-opacity:1;stroke-dasharray:none;stroke-dashoffset:0;marker:none;visibility:visible;display:inline;overflow:visible;enable-background:accumulate"/><path style="color:#000;fill:#8bc34a;fill-opacity:1;fill-rule:nonzero;stroke:#8bc34a;stroke-width:9.60078144000000044;stroke-linecap:round;stroke-linejoin:round;stroke-miterlimit:4;stroke-opacity:1;stroke-dasharray:none;stroke-dashoffset:0;marker:none;visibility:visible;display:inline;overflow:visible;enable-background:accumulate" id="path5407" d="m 316.87315,407.66223 a 9.388834,9.388834 0 1 1 -18.77767,0 9.388834,9.388834 0 1 1 18.77767,0 z" transform="matrix(0.1819265,0,0,0.1819265,-21.704758,965.01923)"/></g></svg>