<svg xmlns="http://www.w3.org/2000/svg" xmlns:svg="http://www.w3.org/2000/svg" id="svg2" width="24" height="24" version="1.1" viewBox="0 0 24 24"><metadata id="metadata10"/><path id="path4" d="M 14.129105,19.422026 H 6.8730841 v -9.234937 h 7.2560209 m 0,-1.3192761 H 6.8730841 A 1.3192767,1.3192767 0 0 0 5.5538069,10.187089 v 9.234937 a 1.3192767,1.3192767 0 0 0 1.3192772,1.319276 h 7.2560209 a 1.3192767,1.3192767 0 0 0 1.319278,-1.319276 V 10.187089 A 1.3192767,1.3192767 0 0 0 14.129105,8.8678129 M 12.150189,6.2292595 H 4.2345312 A 1.3192767,1.3192767 0 0 0 2.915254,7.5485361 V 16.783473 H 4.2345312 V 7.5485361 H 12.150189 V 6.2292595 z"/><path id="path3076" d="m 17.363197,9.8980016 a 0.84079901,0.84079901 0 0 0 0.840798,-0.8408 c 0,-0.466643 -0.378359,-0.840799 -0.840798,-0.840799 a 0.84079901,0.84079901 0 0 0 -0.8408,0.840799 0.84079901,0.84079901 0 0 0 0.8408,0.8408 m 2.522396,-3.783596 a 0.84079901,0.84079901 0 0 1 0.8408,0.840799 V 11.159199 A 0.84079901,0.84079901 0 0 1 19.885593,12 H 14.840799 A 0.84079901,0.84079901 0 0 1 14,11.159199 V 6.9552046 c 0,-0.466644 0.37836,-0.840799 0.840799,-0.840799 h 0.4204 v -0.840799 a 2.1019975,2.1019975 0 0 1 2.101998,-2.101997 2.1019975,2.1019975 0 0 1 2.101997,2.101997 v 0.840799 h 0.420399 m -2.522396,-2.101998 a 1.2611986,1.2611986 0 0 0 -1.261198,1.261199 v 0.840799 h 2.522396 v -0.840799 a 1.2611986,1.2611986 0 0 0 -1.261198,-1.261199 z" style="fill:#000"/></svg>