<svg xmlns="http://www.w3.org/2000/svg" xmlns:svg="http://www.w3.org/2000/svg" id="svg2" width="24" height="24" version="1.1" viewBox="0 0 24 24"><metadata id="metadata10"/><path id="path4" d="M 8.098305,7.8033898 H 3.5245762 C 2.6784365,7.8033898 2,8.4818262 2,9.3279662 V 18.475424 A 1.5245762,1.5245762 0 0 0 3.5245762,20 H 15.721185 a 1.5245762,1.5245762 0 0 0 1.524577,-1.524576 v -7.622882 c 0,-0.846139 -0.686059,-1.5245758 -1.524577,-1.5245758 H 9.6228815 L 8.098305,7.8033898 z" style="fill:#fff"/><path id="path3076" d="m 18.101695,9.4661021 a 0.95762709,0.95762709 0 0 0 0.957627,-0.9576273 c 0,-0.531483 -0.430932,-0.957627 -0.957627,-0.957627 a 0.95762709,0.95762709 0 0 0 -0.957628,0.957627 0.95762709,0.95762709 0 0 0 0.957628,0.9576273 m 2.872881,-4.3093223 a 0.95762709,0.95762709 0 0 1 0.957627,0.957627 V 10.902542 A 0.95762709,0.95762709 0 0 1 20.974576,11.86017 H 15.228813 A 0.95762709,0.95762709 0 0 1 14.271186,10.902542 V 6.1144068 c 0,-0.531483 0.430933,-0.957627 0.957627,-0.957627 h 0.478814 v -0.957627 a 2.3940678,2.3940678 0 0 1 2.394068,-2.3940676 2.3940678,2.3940678 0 0 1 2.394067,2.3940676 v 0.957627 h 0.478814 m -2.872881,-2.394068 a 1.4364407,1.4364407 0 0 0 -1.436441,1.436441 v 0.957627 h 2.872881 v -0.957627 a 1.4364407,1.4364407 0 0 0 -1.43644,-1.436441 z" style="fill:#fff"/></svg>