<svg xmlns="http://www.w3.org/2000/svg" xmlns:svg="http://www.w3.org/2000/svg" xmlns:xlink="http://www.w3.org/1999/xlink" id="svg4241" width="512" height="512" version="1.1"><defs id="defs4243"><clipPath id="SVGID_173_"><use id="use1170" width="595.28" height="841.89" x="0" y="0" overflow="visible" xlink:href="#SVGID_172_" style="overflow:visible"/></clipPath><clipPath id="SVGID_153_"><use id="use1012" width="595.28" height="841.89" x="0" y="0" overflow="visible" xlink:href="#SVGID_152_" style="overflow:visible"/></clipPath></defs><metadata id="metadata4246"/><g id="layer1" transform="translate(0,-540.36218)"><g id="g1006" transform="matrix(5.1617797,0,0,5.1617797,-3144.7765,-2159.0339)" style="opacity:.6;fill:#333;fill-opacity:1"><defs id="defs1008"><rect id="SVGID_152_" width="96" height="96" x="488.004" y="603"/></defs><clipPath id="clipPath4228"><use id="use4230" width="595.28" height="841.89" x="0" y="0" overflow="visible" xlink:href="#SVGID_152_" style="overflow:visible"/></clipPath><path id="path1014" d="m 561.652,653.42 c -0.518,-6.998 -6.348,-12.521 -13.477,-12.521 -2.758,0 -5.318,0.829 -7.463,2.248 -1.537,-6.011 -6.977,-10.462 -13.469,-10.462 -7.688,0 -13.922,6.234 -13.922,13.921 0,0.567 0.045,1.122 0.109,1.674 -0.078,-0.004 -0.158,-0.013 -0.238,-0.013 -5.812,0 -10.523,4.713 -10.523,10.525 0,5.633 4.436,10.223 10.001,10.496 v 0.025 h 48.388 v -0.033 c 0.107,0.004 0.209,0.033 0.316,0.033 4.4,0 7.963,-3.566 7.963,-7.963 10e-4,-4.303 -3.415,-7.786 -7.685,-7.93" clip-path="url(#SVGID_153_)" clip-rule="evenodd" transform="translate(123.22638,-60.338615)" style="fill:#333;fill-opacity:1;fill-rule:evenodd"/></g><g id="g1164" transform="matrix(3.5253364,0,0,3.5253364,99.049835,89.306818)" style="opacity:.6;fill:#333;fill-opacity:1"><defs id="defs1166"><rect id="SVGID_172_" width="96" height="96" x="13.005" y="130.713"/></defs><clipPath id="clipPath4236"><use id="use4238" width="595.28" height="841.89" x="0" y="0" overflow="visible" xlink:href="#SVGID_172_" style="overflow:visible"/></clipPath><path id="path1172" d="M 92.499,200.893 80.335,188.725 c -1.07,-1.068 -3.008,-0.967 -4.951,0.045 l -5.307,-5.305 c 6.914,-9.034 6.262,-22.002 -2.004,-30.269 -8.998,-8.995 -23.586,-8.995 -32.586,0 -8.995,9 -8.995,23.588 0,32.588 8.268,8.265 21.236,8.917 30.27,2.001 l 5.307,5.304 c -1.012,1.946 -1.115,3.882 -0.047,4.952 l 12.166,12.168 c 1.537,1.535 4.873,0.691 7.441,-1.883 2.57,-2.567 3.414,-5.898 1.875,-7.433 M 38.914,182.359 c -7.104,-7.11 -7.104,-18.632 0,-25.736 7.108,-7.109 18.622,-7.103 25.735,0 7.104,7.104 7.104,18.622 0,25.736 -7.113,7.105 -18.63,7.105 -25.735,0" clip-path="url(#SVGID_173_)" style="fill:#333;fill-opacity:1"/></g></g></svg>