<svg xmlns="http://www.w3.org/2000/svg" xmlns:svg="http://www.w3.org/2000/svg" xmlns:xlink="http://www.w3.org/1999/xlink" id="svg9121" width="100%" height="100%" version="1.1" viewBox="0 0 48 48"><defs id="defs3"><radialGradient id="radialGradient6981" cx="26.782" cy="42.343" r="14.407" gradientTransform="matrix(1,0,0,0.28221,0,30.394)" gradientUnits="userSpaceOnUse"><stop id="stop6977" offset="0" style="stop-color:#000"/><stop id="stop6979" offset="1" style="stop-color:#000;stop-opacity:0"/></radialGradient><linearGradient id="linearGradient9910"><stop id="stop9912" offset="0" style="stop-color:#729fcf"/><stop id="stop9918" offset=".316" style="stop-color:#a5bfda"/><stop id="stop9914" offset="1" style="stop-color:#376ca4"/></linearGradient><linearGradient id="linearGradient3009" x1="28.245" x2="28.245" y1="60.446" y2="68.225" gradientTransform="matrix(0.4933,-0.71665,-0.71665,-0.4933,94.393,72.494)" gradientUnits="userSpaceOnUse" xlink:href="#linearGradient9910"/><linearGradient id="linearGradient3011" x1="28.245" x2="28.245" y1="60.446" y2="68.225" gradientTransform="matrix(0.4933,-0.71665,-0.71665,-0.4933,94.393,72.494)" gradientUnits="userSpaceOnUse"><stop id="stop9922" offset="0" style="stop-color:#5b90c8"/><stop id="stop9924" offset=".316" style="stop-color:#8fb0d1"/><stop id="stop9926" offset="1" style="stop-color:#34679d"/></linearGradient><linearGradient id="linearGradient3015" x1="55.876" x2="38.061" y1="62.402" y2="62.827" gradientTransform="matrix(0.4933,-0.71665,-0.71665,-0.4933,94.393,72.494)" gradientUnits="userSpaceOnUse"><stop id="stop9954" offset="0" style="stop-color:#fff"/><stop id="stop9956" offset="1" style="stop-color:#fff;stop-opacity:0"/></linearGradient><linearGradient id="linearGradient4867" x1="-52.533" x2="-52.219" y1="212.261" y2="210.21" gradientTransform="matrix(0.603475,1.045249,-1.045249,0.603475,205.9786,145.2615)" gradientUnits="userSpaceOnUse" xlink:href="#linearGradient3794"/><linearGradient id="linearGradient4865" x1="-52.954" x2="-49.313" y1="182.07" y2="182.063" gradientTransform="matrix(0.577491,1.44816,-1.045249,0.603475,204.2967,164.9777)" gradientUnits="userSpaceOnUse" xlink:href="#linearGradient2334"/><radialGradient id="radialGradient4863" cx="-151.734" cy="289.98" r=".633" fx="-151.626" fy="290.385" gradientUnits="userSpaceOnUse" xlink:href="#linearGradient3916"/><linearGradient id="linearGradient4861" x1="-151.526" x2="-151.822" y1="289.94" y2="290.109" gradientUnits="userSpaceOnUse" xlink:href="#linearGradient2904"/><linearGradient id="linearGradient4859" x1="-128.984" x2="-129.631" y1="289.605" y2="280.785" gradientTransform="matrix(0.5,-0.866025,-0.866025,-0.5,175.1251,303.2683)" gradientUnits="userSpaceOnUse" xlink:href="#linearGradient3877"/><linearGradient id="linearGradient4857" x1="-135.909" x2="-134.635" y1="273.131" y2="274.506" gradientUnits="userSpaceOnUse" xlink:href="#linearGradient3877"/><linearGradient id="linearGradient4855" x1="-161.946" x2="-115.944" y1="164.395" y2="160.493" gradientTransform="matrix(0.192457,0.327601,0.333345,-0.189141,-161.4249,355.0328)" gradientUnits="userSpaceOnUse" xlink:href="#linearGradient2783"/><linearGradient id="linearGradient4853" x1="190.035" x2="208.772" y1="90.227" y2="90.227" gradientTransform="matrix(0.912724,0,0,0.424636,-6.403316,173.8027)" gradientUnits="userSpaceOnUse" xlink:href="#linearGradient2783"/><linearGradient id="linearGradient4851" x1="190.035" x2="207.948" y1="90.227" y2="90.227" gradientTransform="matrix(0.664548,0,0,0.264547,-131.0687,66.21191)" gradientUnits="userSpaceOnUse" xlink:href="#linearGradient2783"/><linearGradient id="linearGradient4848" x1="190.035" x2="207.948" y1="90.227" y2="90.227" gradientTransform="matrix(0.607393,0,0,0.241796,-119.6068,8.018947)" gradientUnits="userSpaceOnUse" xlink:href="#linearGradient2783"/><linearGradient id="linearGradient4845" x1="254.013" x2="183.396" y1="282.733" y2="212.116" gradientTransform="matrix(0.728092,0,0,0.622996,-126.4064,-42.0668)" gradientUnits="userSpaceOnUse" xlink:href="#linearGradient2584"/><linearGradient id="linearGradient4842" x1="190.035" x2="208.715" y1="90.227" y2="90.227" gradientTransform="matrix(0.728092,0,0,0.622996,-143.625,9.96334)" gradientUnits="userSpaceOnUse" xlink:href="#linearGradient2783"/><linearGradient id="linearGradient4839" x1="-40.932" x2="-44.212" y1="154.805" y2="142.563" gradientTransform="matrix(0.728092,0,0,0.622996,33.86533,-73.74743)" gradientUnits="userSpaceOnUse" xlink:href="#linearGradient2816"/><linearGradient id="linearGradient4836" x1="-44.999" x2="-45.04" y1="132.863" y2="137" gradientTransform="matrix(0.728092,0,0,0.622996,33.86533,-73.74743)" gradientUnits="userSpaceOnUse" xlink:href="#linearGradient3725"/><linearGradient id="linearGradient4833" x1="-53.739" x2="-53.739" y1="145.543" y2="146.014" gradientTransform="matrix(0.728092,0,0,0.622996,33.86533,-73.74743)" gradientUnits="userSpaceOnUse" xlink:href="#linearGradient3737"/><linearGradient id="linearGradient4830" x1="98.411" x2="166.33" y1="185.689" y2="155.598" gradientTransform="matrix(0.728092,0,0,0.622996,-126.4064,-26.85791)" gradientUnits="userSpaceOnUse" xlink:href="#linearGradient3969"/><linearGradient id="linearGradient4827" x1="-71.805" x2="-56.4" y1="128.929" y2="224.421" gradientTransform="matrix(1.070628,0,0,0.722932,47.25964,-88.36299)" gradientUnits="userSpaceOnUse" xlink:href="#linearGradient2837"/><linearGradient id="linearGradient4824" x1="22.229" x2="27.946" y1="-5.352" y2="-5.352" gradientTransform="matrix(0.721297,0,0,0.842975,6.160536,-1.236524)" gradientUnits="userSpaceOnUse" xlink:href="#linearGradient2803"/><linearGradient id="linearGradient4811" x1="-162.56" x2="-118.898" y1="167.366" y2="161.924" gradientTransform="matrix(0.257687,-0.100623,-0.08345452,-0.223716,91.79796,131.4822)" gradientUnits="userSpaceOnUse" xlink:href="#linearGradient2783"/><linearGradient id="linearGradient4808" x1="-203.842" x2="-120.47" y1="321.436" y2="273.301" gradientTransform="matrix(-0.532949,-0.373612,-0.477402,0.516435,104.9451,-85.23938)" gradientUnits="userSpaceOnUse" xlink:href="#linearGradient3877"/><linearGradient id="linearGradient4805" x1="-135.909" x2="-134.635" y1="273.131" y2="274.506" gradientTransform="matrix(0.146967,-0.634054,0.700252,0.06533976,-133.103,5.916054)" gradientUnits="userSpaceOnUse" xlink:href="#linearGradient3877"/><linearGradient id="linearGradient4802" x1="-119.94" x2="-123.912" y1="274.45" y2="276.743" gradientTransform="matrix(-0.532949,-0.373612,-0.477402,0.516435,105.0825,-85.28139)" gradientUnits="userSpaceOnUse" xlink:href="#linearGradient3877"/><linearGradient id="linearGradient4799" x1="-119.889" x2="-133.023" y1="290.393" y2="277.26" gradientTransform="matrix(-0.532949,-0.373612,-0.477402,0.516435,105.0702,-85.26578)" gradientUnits="userSpaceOnUse" xlink:href="#linearGradient3877"/><linearGradient id="linearGradient4796" x1="-113.998" x2="-102.014" y1="262" y2="265.211" gradientTransform="matrix(-0.679917,0.260443,0.22285,0.581774,-91.48128,-31.73262)" gradientUnits="userSpaceOnUse" xlink:href="#linearGradient2594"/><linearGradient id="linearGradient4792" x1="64.57" x2="35.684" y1="130.185" y2="-19.841" gradientTransform="translate(0,4.991102)" gradientUnits="userSpaceOnUse" xlink:href="#linearGradient4786"/><linearGradient id="linearGradient4767" x1="78.627" x2="-17.457" y1="134.096" y2="-26.084" gradientTransform="matrix(185.3368,0,0,185.3368,-7890.014,-29267.3)" gradientUnits="userSpaceOnUse" xlink:href="#linearGradient4761"/><linearGradient id="linearGradient3813" x1="-113.998" x2="-102.014" y1="262" y2="265.211" gradientTransform="matrix(0.598243,0.598245,-0.598245,0.598243,251.5381,-2.932067)" gradientUnits="userSpaceOnUse" xlink:href="#linearGradient2594"/><linearGradient id="linearGradient3811" x1="-119.889" x2="-133.023" y1="290.393" y2="277.26" gradientTransform="matrix(0.817216,-0.218974,0.218974,0.817216,65.48189,-149.9699)" gradientUnits="userSpaceOnUse" xlink:href="#linearGradient3877"/><linearGradient id="linearGradient3809" x1="-119.94" x2="-123.912" y1="274.45" y2="276.743" gradientTransform="matrix(0.817216,-0.218974,0.218974,0.817216,65.47762,-149.9938)" gradientUnits="userSpaceOnUse" xlink:href="#linearGradient3877"/><linearGradient id="linearGradient3807" x1="-135.909" x2="-134.635" y1="273.131" y2="274.506" gradientTransform="matrix(0.218972,-0.817218,-0.817218,-0.218972,275.0757,59.5335)" gradientUnits="userSpaceOnUse" xlink:href="#linearGradient3877"/><linearGradient id="linearGradient3805" x1="-203.842" x2="-120.47" y1="321.436" y2="273.301" gradientTransform="matrix(0.817216,-0.218974,0.218974,0.817216,65.60485,-149.8856)" gradientUnits="userSpaceOnUse" xlink:href="#linearGradient3877"/><linearGradient id="linearGradient3803" x1="-162.56" x2="-118.898" y1="167.366" y2="161.924" gradientTransform="matrix(-0.225578,-0.229014,0.227562,-0.230999,-50.43563,113.7248)" gradientUnits="userSpaceOnUse" xlink:href="#linearGradient2783"/><linearGradient id="linearGradient3801" x1="-128.984" x2="-129.631" y1="289.605" y2="280.785" gradientTransform="matrix(0.5,-0.866025,-0.866025,-0.5,175.1251,303.2683)" gradientUnits="userSpaceOnUse" xlink:href="#linearGradient3877"/><linearGradient id="linearGradient3799" x1="-135.909" x2="-134.635" y1="273.131" y2="274.506" gradientUnits="userSpaceOnUse" xlink:href="#linearGradient3877"/><linearGradient id="linearGradient3797" x1="-161.946" x2="-115.944" y1="164.395" y2="160.493" gradientTransform="matrix(0.192457,0.327601,0.333345,-0.189141,-161.4249,355.0328)" gradientUnits="userSpaceOnUse" xlink:href="#linearGradient2783"/><linearGradient id="linearGradient3795" x1="190.035" x2="208.772" y1="90.227" y2="90.227" gradientTransform="matrix(0.912724,1.015404e-15,-4.724083e-16,0.424636,-6.403316,173.8027)" gradientUnits="userSpaceOnUse" xlink:href="#linearGradient2783"/><linearGradient id="linearGradient3793" x1="-151.526" x2="-151.822" y1="289.94" y2="290.109" gradientUnits="userSpaceOnUse" xlink:href="#linearGradient2904"/><radialGradient id="radialGradient3791" cx="-151.734" cy="289.98" r=".633" fx="-151.626" fy="290.385" gradientUnits="userSpaceOnUse" xlink:href="#linearGradient3916"/><linearGradient id="linearGradient3789" x1="-52.533" x2="-52.219" y1="212.261" y2="210.21" gradientTransform="matrix(0.603475,1.045249,-1.045249,0.603475,205.9786,145.2615)" gradientUnits="userSpaceOnUse" xlink:href="#linearGradient3794"/><linearGradient id="linearGradient3787" x1="-52.954" x2="-49.313" y1="182.07" y2="182.063" gradientTransform="matrix(0.577491,1.44816,-1.045249,0.603475,204.2967,164.9777)" gradientUnits="userSpaceOnUse" xlink:href="#linearGradient2334"/><linearGradient id="linearGradient3785" x1="22.229" x2="27.946" y1="-5.352" y2="-5.352" gradientTransform="matrix(0.979539,0,0,0.979539,-86.88986,88.27577)" gradientUnits="userSpaceOnUse" xlink:href="#linearGradient2803"/><linearGradient id="linearGradient3783" x1="-71.805" x2="-56.4" y1="128.929" y2="224.421" gradientTransform="matrix(1.247091,-1.162073e-15,4.128014e-15,0.981737,144.3139,-227.2465)" gradientUnits="userSpaceOnUse" xlink:href="#linearGradient2837"/><linearGradient id="linearGradient3781" x1="98.411" x2="166.33" y1="185.689" y2="155.598" gradientTransform="matrix(0.846045,-1.860709e-16,1.860709e-16,0.846045,-236.597,-131.7297)" gradientUnits="userSpaceOnUse" xlink:href="#linearGradient3969"/><linearGradient id="linearGradient3779" x1="-53.739" x2="-53.739" y1="145.543" y2="146.014" gradientTransform="matrix(0.846045,-1.860709e-16,1.860709e-16,0.846045,-50.36109,-195.4067)" gradientUnits="userSpaceOnUse" xlink:href="#linearGradient3737"/><linearGradient id="linearGradient3777" x1="-44.999" x2="-45.04" y1="132.863" y2="137" gradientTransform="matrix(0.846045,-1.860709e-16,1.860709e-16,0.846045,-50.36109,-195.4067)" gradientUnits="userSpaceOnUse" xlink:href="#linearGradient3725"/><linearGradient id="linearGradient3775" x1="-40.932" x2="-44.212" y1="154.805" y2="142.563" gradientTransform="matrix(0.846045,-1.860709e-16,1.860709e-16,0.846045,-50.36109,-195.4067)" gradientUnits="userSpaceOnUse" xlink:href="#linearGradient2816"/><linearGradient id="linearGradient3773" x1="190.035" x2="208.715" y1="90.227" y2="90.227" gradientTransform="matrix(0.846045,-1.860709e-16,1.860709e-16,0.846045,-256.605,-81.72549)" gradientUnits="userSpaceOnUse" xlink:href="#linearGradient2783"/><linearGradient id="linearGradient3771" x1="254.013" x2="183.396" y1="282.733" y2="212.116" gradientTransform="matrix(0.846045,-1.860709e-16,1.860709e-16,0.846045,-236.597,-152.3837)" gradientUnits="userSpaceOnUse" xlink:href="#linearGradient2584"/><linearGradient id="linearGradient3769" x1="190.035" x2="207.948" y1="90.227" y2="90.227" gradientTransform="matrix(0.705792,-3.315894e-16,1.542688e-16,0.328364,-228.6959,-84.36606)" gradientUnits="userSpaceOnUse" xlink:href="#linearGradient2783"/><linearGradient id="linearGradient3767" x1="190.035" x2="207.948" y1="90.227" y2="90.227" gradientTransform="matrix(0.772206,-3.627912e-16,1.68785e-16,0.359262,-242.0146,-5.338632)" gradientUnits="userSpaceOnUse" xlink:href="#linearGradient2783"/><radialGradient id="radialGradient1849" cx="49.01" cy="8.495" r="3.975" fx="47.371" fy="6.77" gradientTransform="matrix(1.356777,-1.351147,0.514634,0.506057,13.97331,144.7648)" gradientUnits="userSpaceOnUse" xlink:href="#linearGradient3225"/><radialGradient id="radialGradient1843" cx="42.618" cy="120.642" r="3.407" fx="42.618" fy="120.642" gradientTransform="matrix(1.189945,-1.097266,10.02589,10.71259,-1219.622,-1057.421)" gradientUnits="userSpaceOnUse" xlink:href="#linearGradient2257"/><radialGradient id="radialGradient1839" cx="95.506" cy="59.592" r="47.746" fx="95.506" fy="59.592" gradientTransform="matrix(4.566411e-2,-4.788321e-2,0.620367,0.579402,-51.63454,105.7266)" gradientUnits="userSpaceOnUse" xlink:href="#linearGradient3311"/><radialGradient id="radialGradient1832" cx="49.01" cy="8.495" r="3.975" fx="47.371" fy="6.77" gradientTransform="matrix(1.356777,-1.351147,0.514634,0.506057,17.96571,148.7572)" gradientUnits="userSpaceOnUse" xlink:href="#linearGradient3225"/><linearGradient id="linearGradient1828" x1="48.915" x2="48.913" y1="2.972" y2="2.555" gradientTransform="matrix(1.377891,-5.619353e-16,5.718576e-16,1.378588,-157.1235,8.306546)" gradientUnits="userSpaceOnUse" xlink:href="#linearGradient3217"/><radialGradient id="radialGradient1825" cx="49.012" cy="2.674" r="1.725" fx="49.012" fy="2.674" gradientTransform="matrix(1.377891,-6.477806e-16,9.237702e-17,0.167717,-157.1235,11.50846)" gradientUnits="userSpaceOnUse" xlink:href="#linearGradient3207"/><linearGradient id="linearGradient1822" x1="48.499" x2="48.733" y1=".812" y2="2.366" gradientTransform="matrix(0.955605,-0.992673,1.003084,0.945687,-109.6755,141.6446)" gradientUnits="userSpaceOnUse" xlink:href="#linearGradient3235"/><linearGradient id="linearGradient1819" x1="46.052" x2="46.052" y1="3.1" y2="2.396" gradientTransform="matrix(1.370306,-6.74612e-16,6.794753e-16,1.378588,-177.9497,19.22199)" gradientUnits="userSpaceOnUse" xlink:href="#linearGradient3251"/><radialGradient id="radialGradient1816" cx="49.012" cy="2.674" r="1.725" fx="49.012" fy="2.674" gradientTransform="matrix(0.913761,-3.914973e-16,8.615996e-17,0.167717,-159.5126,22.4239)" gradientUnits="userSpaceOnUse" xlink:href="#linearGradient3273"/><linearGradient id="linearGradient1813" x1="46.052" x2="46.052" y1="3.1" y2="2.396" gradientTransform="matrix(1.359604,6.967609e-16,-7.159828e-16,1.378588,22.92971,8.306546)" gradientUnits="userSpaceOnUse" xlink:href="#linearGradient3251"/><radialGradient id="radialGradient1810" cx="49.012" cy="2.674" r="1.725" fx="49.012" fy="2.674" gradientTransform="matrix(0.906625,5.229742e-16,-8.363717e-17,0.167717,41.22271,11.50846)" gradientUnits="userSpaceOnUse" xlink:href="#linearGradient3259"/><linearGradient id="linearGradient2098" x1="18.831" x2="106.687" y1="100.845" y2="-3.39" gradientTransform="matrix(1.037052,2.007666e-8,3.284487e-9,1.037052,-100.2723,-192.7867)" gradientUnits="userSpaceOnUse" xlink:href="#linearGradient3194"/><linearGradient id="linearGradient2092" x1="-1.586" x2="4.705" y1="108.856" y2="31.383" gradientTransform="matrix(1.135108,-0.448939,0.552451,0.962772,-40.60309,-187.5898)" gradientUnits="userSpaceOnUse" xlink:href="#linearGradient3194"/><linearGradient id="linearGradient2063" x1="-109.435" x2="61" y1="-151.148" y2="2.347" gradientTransform="matrix(0.231056,5.037254e-2,-6.542752e-2,0.252624,29.80596,-147.5379)" gradientUnits="userSpaceOnUse" xlink:href="#linearGradient3247"/><linearGradient id="linearGradient2060" x1="-109.435" x2="61" y1="-151.148" y2="2.347" gradientTransform="matrix(0.231056,5.037254e-2,-6.542752e-2,0.252624,28.40846,-141.1694)" gradientUnits="userSpaceOnUse" xlink:href="#linearGradient3247"/><linearGradient id="linearGradient2057" x1="-109.435" x2="61" y1="-151.148" y2="2.347" gradientTransform="matrix(0.231056,5.037254e-2,-6.542752e-2,0.252624,26.6982,-133.5356)" gradientUnits="userSpaceOnUse" xlink:href="#linearGradient3247"/><linearGradient id="linearGradient3247"><stop style="stop-color:#3e3e3e;stop-opacity:1" id="stop3249" offset="0"/><stop style="stop-color:#516987;stop-opacity:1" id="stop5044" offset=".427"/><stop style="stop-color:#6495d0;stop-opacity:1" id="stop5042" offset=".5"/><stop style="stop-color:#a8a0a0;stop-opacity:1" id="stop3251" offset="1"/></linearGradient><linearGradient id="linearGradient3194"><stop style="stop-color:#000;stop-opacity:1" id="stop3196" offset="0"/><stop style="stop-color:#000;stop-opacity:0" id="stop3198" offset="1"/></linearGradient><radialGradient id="XMLID_11_" cx="336.894" cy="-319.726" r="130.523" gradientTransform="matrix(0.198406,0,-5.256355e-3,-0.198406,-93.84279,22.97293)" gradientUnits="userSpaceOnUse"><stop style="stop-color:#a4c0e4" id="stop37" offset="0"/><stop style="stop-color:#6193cf" id="stop39" offset="1"/></radialGradient><radialGradient id="XMLID_12_" cx="336.894" cy="-319.726" r="130.523" gradientTransform="matrix(0.198406,0,-5.256355e-3,-0.198406,-93.84279,22.97293)" gradientUnits="userSpaceOnUse"><stop style="stop-color:#a4c0e4" id="stop44" offset="0"/><stop style="stop-color:#6193cf" id="stop46" offset=".604"/><stop style="stop-color:#a4c0e4" id="stop48" offset="1"/></radialGradient><linearGradient id="linearGradient3075"><stop style="stop-color:#fff;stop-opacity:1" id="stop3077" offset="0"/><stop style="stop-color:#fff;stop-opacity:1" id="stop3093" offset=".426"/><stop style="stop-color:#f1f1f1;stop-opacity:1" id="stop3085" offset=".589"/><stop style="stop-color:#eaeaea;stop-opacity:1" id="stop3087" offset=".802"/><stop style="stop-color:#dfdfdf;stop-opacity:1" id="stop3079" offset="1"/></linearGradient><linearGradient id="linearGradient3353"><stop style="stop-color:#fff;stop-opacity:1" id="stop3355" offset="0"/><stop style="stop-color:#a5a5a5;stop-opacity:0" id="stop3357" offset="1"/></linearGradient><linearGradient id="linearGradient4966" x1="60.091" x2="86.433" y1="45.236" y2="195.986" gradientTransform="matrix(0.96748,-4.374751e-16,-2.440752e-16,0.968109,20.17568,-155.5467)" gradientUnits="userSpaceOnUse" xlink:href="#linearGradient3225"/><radialGradient id="radialGradient4968" cx="142.868" cy="143.753" r="56.5" fx="142.868" fy="143.753" gradientTransform="matrix(4.812808,2.797057e-8,-3.919899e-16,1.594847,-529.1983,-269.9719)" gradientUnits="userSpaceOnUse" xlink:href="#linearGradient3075"/><radialGradient id="radialGradient4970" cx="120" cy="123.5" r="56.5" fx="120" fy="123.5" gradientTransform="matrix(2.392839,-0.895574,0.227956,0.609854,-179.0198,-21.74344)" gradientUnits="userSpaceOnUse" xlink:href="#linearGradient3353"/><radialGradient id="radialGradient5103" cx="272.176" cy="-157.978" r="174.632" gradientTransform="matrix(1,-1.530316e-16,-1.140949e-16,-1,-242,-204.9561)" gradientUnits="userSpaceOnUse" xlink:href="#linearGradient3075"/><radialGradient id="radialGradient5105" cx="336.894" cy="-319.726" r="130.523" gradientTransform="matrix(0.193247,4.495059e-2,4.495059e-2,-0.193247,-78.81007,11.04748)" gradientUnits="userSpaceOnUse" xlink:href="#XMLID_11_"/><radialGradient id="radialGradient5107" cx="336.894" cy="-319.726" r="130.523" fx="336.894" fy="-319.726" gradientTransform="matrix(0.286552,6.560989e-2,5.823395e-2,-0.259055,-105.9967,-16.95304)" gradientUnits="userSpaceOnUse" xlink:href="#XMLID_12_"/><linearGradient id="linearGradient2803"><stop style="stop-color:#e2dcdc;stop-opacity:1" id="stop2809" offset="0"/><stop style="stop-color:#fff;stop-opacity:1" id="stop2811" offset=".391"/><stop style="stop-color:#dfd9df;stop-opacity:1" id="stop2813" offset=".827"/><stop style="stop-color:#c3c3c3;stop-opacity:1" id="stop2815" offset="1"/></linearGradient><linearGradient id="linearGradient2334"><stop style="stop-color:#323232;stop-opacity:1" id="stop2336" offset="0"/><stop style="stop-color:#dfe1e1;stop-opacity:1" id="stop2346" offset=".077"/><stop style="stop-color:#e2dcdc;stop-opacity:1" id="stop2342" offset=".5"/><stop style="stop-color:#fff;stop-opacity:1" id="stop2348" offset=".782"/><stop style="stop-color:#dfd9df;stop-opacity:1" id="stop2344" offset=".901"/><stop style="stop-color:#3a3a3a;stop-opacity:1" id="stop2338" offset="1"/></linearGradient><radialGradient id="radialGradient3297" cx="63.912" cy="115.709" r="63.912" fx="15.773" fy="115.709" gradientTransform="matrix(1,0,0,0.197802,0,92.82166)" gradientUnits="userSpaceOnUse" xlink:href="#linearGradient3291"/><linearGradient id="linearGradient2257"><stop style="stop-color:#b4942a;stop-opacity:1" id="stop2259" offset="0"/><stop style="stop-color:#e4dcc9;stop-opacity:1" id="stop2261" offset="1"/></linearGradient><linearGradient id="linearGradient3207"><stop style="stop-color:#fff;stop-opacity:1" id="stop3209" offset="0"/><stop style="stop-color:#252525;stop-opacity:0" id="stop3211" offset="1"/></linearGradient><linearGradient id="linearGradient3217"><stop style="stop-color:#252525;stop-opacity:1" id="stop3219" offset="0"/><stop style="stop-color:#252525;stop-opacity:0" id="stop3221" offset="1"/></linearGradient><linearGradient id="linearGradient3225"><stop style="stop-color:#fff;stop-opacity:1" id="stop3227" offset="0"/><stop style="stop-color:#aeaeae;stop-opacity:1" id="stop3229" offset="1"/></linearGradient><linearGradient id="linearGradient3235"><stop style="stop-color:#fff;stop-opacity:1" id="stop3237" offset="0"/><stop style="stop-color:#fff;stop-opacity:0" id="stop3239" offset="1"/></linearGradient><linearGradient id="linearGradient3251"><stop style="stop-color:#000;stop-opacity:1" id="stop3253" offset="0"/><stop style="stop-color:#131313;stop-opacity:0" id="stop3255" offset="1"/></linearGradient><linearGradient id="linearGradient3259"><stop style="stop-color:#fff;stop-opacity:.55035973" id="stop3261" offset="0"/><stop style="stop-color:#000;stop-opacity:0" id="stop3263" offset="1"/></linearGradient><linearGradient id="linearGradient3273"><stop style="stop-color:#fff;stop-opacity:.55035973" id="stop3275" offset="0"/><stop style="stop-color:#fff;stop-opacity:0" id="stop3277" offset="1"/></linearGradient><linearGradient id="linearGradient3291"><stop style="stop-color:#000;stop-opacity:1" id="stop3293" offset="0"/><stop style="stop-color:#000;stop-opacity:0" id="stop3295" offset="1"/></linearGradient><linearGradient id="linearGradient3303"><stop style="stop-color:#fff;stop-opacity:.68345326" id="stop3305" offset="0"/><stop style="stop-color:#fff;stop-opacity:0" id="stop3307" offset="1"/></linearGradient><linearGradient id="linearGradient3311"><stop style="stop-color:#2d2d2d;stop-opacity:1" id="stop3313" offset="0"/><stop style="stop-color:#000;stop-opacity:1" id="stop3319" offset=".5"/><stop style="stop-color:#000;stop-opacity:1" id="stop3315" offset="1"/></linearGradient><linearGradient id="linearGradient3325"><stop style="stop-color:#fff;stop-opacity:1" id="stop3327" offset="0"/><stop style="stop-color:#fff;stop-opacity:0" id="stop3329" offset="1"/></linearGradient><linearGradient id="linearGradient2783"><stop style="stop-color:#323232;stop-opacity:1" id="stop2785" offset="0"/><stop style="stop-color:#dfe1e1;stop-opacity:1" id="stop2787" offset=".077"/><stop style="stop-color:#b6b1b1;stop-opacity:1" id="stop2799" offset=".263"/><stop style="stop-color:#8d8282;stop-opacity:1" id="stop2789" offset=".5"/><stop style="stop-color:#fff;stop-opacity:1" id="stop2791" offset=".782"/><stop style="stop-color:#dfd9df;stop-opacity:1" id="stop2793" offset=".901"/><stop style="stop-color:#3a3a3a;stop-opacity:1" id="stop2795" offset="1"/></linearGradient><linearGradient id="linearGradient2816"><stop style="stop-color:#000;stop-opacity:1" id="stop2818" offset="0"/><stop style="stop-color:#000;stop-opacity:0" id="stop2820" offset="1"/></linearGradient><linearGradient id="linearGradient2837"><stop style="stop-color:#000;stop-opacity:1" id="stop2839" offset="0"/><stop style="stop-color:#000;stop-opacity:0" id="stop2841" offset="1"/></linearGradient><linearGradient id="linearGradient3725"><stop style="stop-color:#000;stop-opacity:1" id="stop3727" offset="0"/><stop style="stop-color:#000;stop-opacity:0" id="stop3729" offset="1"/></linearGradient><linearGradient id="linearGradient3737"><stop style="stop-color:#000;stop-opacity:1" id="stop3739" offset="0"/><stop style="stop-color:#000;stop-opacity:0" id="stop3741" offset="1"/></linearGradient><linearGradient id="linearGradient3794"><stop style="stop-color:#000;stop-opacity:1" id="stop3796" offset="0"/><stop style="stop-color:#000;stop-opacity:0" id="stop3798" offset="1"/></linearGradient><linearGradient id="linearGradient3877"><stop style="stop-color:#000;stop-opacity:1" id="stop3879" offset="0"/><stop style="stop-color:#000;stop-opacity:.49458483" id="stop3943" offset=".258"/><stop style="stop-color:#000;stop-opacity:0" id="stop3881" offset="1"/></linearGradient><linearGradient id="linearGradient3916"><stop style="stop-color:#fff;stop-opacity:1" id="stop3926" offset="0"/><stop style="stop-color:#b9abb9;stop-opacity:1" id="stop3935" offset=".36"/><stop style="stop-color:#dfd9df;stop-opacity:1" id="stop3928" offset=".72"/><stop style="stop-color:#3a3a3a;stop-opacity:1" id="stop3930" offset="1"/></linearGradient><linearGradient id="linearGradient3969"><stop style="stop-color:#000;stop-opacity:1" id="stop3971" offset="0"/><stop style="stop-color:#000;stop-opacity:0" id="stop3973" offset="1"/></linearGradient><linearGradient id="linearGradient2584"><stop style="stop-color:#000;stop-opacity:1" id="stop2586" offset="0"/><stop style="stop-color:#000;stop-opacity:0" id="stop2588" offset="1"/></linearGradient><linearGradient id="linearGradient2594"><stop style="stop-color:#fafafa;stop-opacity:1" id="stop2596" offset="0"/><stop style="stop-color:#fafafa;stop-opacity:0" id="stop2598" offset="1"/></linearGradient><linearGradient id="linearGradient2904"><stop style="stop-color:#000;stop-opacity:1" id="stop2906" offset="0"/><stop style="stop-color:#000;stop-opacity:0" id="stop2908" offset="1"/></linearGradient><radialGradient id="radialGradient1495" cx="42.618" cy="120.642" r="3.407" fx="42.618" fy="120.642" gradientTransform="matrix(1.520175,8.839467e-2,-0.843351,13.788,109.1206,-1545.323)" gradientUnits="userSpaceOnUse" xlink:href="#linearGradient2257"/><radialGradient id="radialGradient1497" cx="95.506" cy="59.592" r="47.746" fx="95.506" fy="59.592" gradientTransform="matrix(6.228741e-2,-3.825032e-4,4.90218e-3,0.798611,68.90433,5.49306)" gradientUnits="userSpaceOnUse" xlink:href="#linearGradient3311"/><radialGradient id="radialGradient1499" cx="49.01" cy="8.495" r="3.975" fx="47.371" fy="6.77" gradientTransform="matrix(1.297068,-1.880044e-3,7.085819e-4,0.48867,6.806484,-3.45491)" gradientUnits="userSpaceOnUse" xlink:href="#linearGradient3225"/><linearGradient id="linearGradient1501" x1="48.915" x2="48.913" y1="2.972" y2="2.555" gradientTransform="matrix(1.29707,-5.404712e-16,4.58344e-16,1.29707,6.81152,-10.31269)" gradientUnits="userSpaceOnUse" xlink:href="#linearGradient3217"/><radialGradient id="radialGradient1503" cx="49.012" cy="2.674" r="1.725" fx="49.012" fy="2.674" gradientTransform="matrix(1.29707,-6.212403e-16,7.722943e-17,0.1578,6.81152,-7.300115)" gradientUnits="userSpaceOnUse" xlink:href="#linearGradient3207"/><linearGradient id="linearGradient1505" x1="48.499" x2="48.733" y1=".812" y2="2.366" gradientTransform="matrix(1.297068,-1.880044e-3,1.880044e-3,1.297068,6.796523,-10.3225)" gradientUnits="userSpaceOnUse" xlink:href="#linearGradient3235"/><linearGradient id="linearGradient1507" x1="46.052" x2="46.052" y1="3.1" y2="2.396" gradientTransform="matrix(1.28993,-6.724203e-16,5.940154e-16,1.29707,7.14915,-10.31269)" gradientUnits="userSpaceOnUse" xlink:href="#linearGradient3251"/><radialGradient id="radialGradient1509" cx="49.012" cy="2.674" r="1.725" fx="49.012" fy="2.674" gradientTransform="matrix(0.860164,-3.934864e-16,7.555796e-17,0.1578,24.50481,-7.300115)" gradientUnits="userSpaceOnUse" xlink:href="#linearGradient3273"/><linearGradient id="linearGradient1511" x1="46.052" x2="46.052" y1="3.1" y2="2.396" gradientTransform="matrix(1.279856,6.671681e-16,-5.940154e-16,1.29707,-133.1341,-10.31269)" gradientUnits="userSpaceOnUse" xlink:href="#linearGradient3251"/><radialGradient id="radialGradient1513" cx="49.012" cy="2.674" r="1.725" fx="49.012" fy="2.674" gradientTransform="matrix(0.853446,4.997903e-16,-6.900222e-17,0.1578,-115.9141,-7.300115)" gradientUnits="userSpaceOnUse" xlink:href="#linearGradient3259"/><radialGradient id="radialGradient1515" cx="34.678" cy="7.462" r="47.595" fx="34.678" fy="7.462" gradientTransform="matrix(1,-3.083583e-17,-3.938869e-18,2.608014e-2,-2.094309e-13,7.26766)" gradientUnits="userSpaceOnUse" xlink:href="#linearGradient3303"/><radialGradient id="radialGradient1517" cx="34.678" cy="7.462" r="47.595" fx="34.678" fy="7.462" gradientTransform="matrix(-1.511766,-6.865741e-3,4.187271e-5,-9.110636e-3,87.10184,7.76835)" gradientUnits="userSpaceOnUse" xlink:href="#linearGradient3325"/><linearGradient id="linearGradient4761"><stop style="stop-color:#000;stop-opacity:1" id="stop4763" offset="0"/><stop style="stop-color:#000;stop-opacity:0" id="stop4765" offset="1"/></linearGradient><linearGradient id="linearGradient4786"><stop style="stop-color:#000;stop-opacity:1" id="stop4788" offset="0"/><stop style="stop-color:#000;stop-opacity:0" id="stop4790" offset="1"/></linearGradient><linearGradient id="linearGradient4073" x1="-113.998" x2="-102.014" y1="262" y2="265.211" gradientTransform="matrix(-0.679917,0.260443,0.22285,0.581774,-469.72946,52.112113)" gradientUnits="userSpaceOnUse" xlink:href="#linearGradient2594"/><linearGradient id="linearGradient4076" x1="-119.889" x2="-133.023" y1="290.393" y2="277.26" gradientTransform="matrix(-0.532949,-0.373612,-0.477402,0.516435,-273.17798,-1.421047)" gradientUnits="userSpaceOnUse" xlink:href="#linearGradient3877"/><linearGradient id="linearGradient4079" x1="-119.94" x2="-123.912" y1="274.45" y2="276.743" gradientTransform="matrix(-0.532949,-0.373612,-0.477402,0.516435,-273.16568,-1.436657)" gradientUnits="userSpaceOnUse" xlink:href="#linearGradient3877"/><linearGradient id="linearGradient4082" x1="-135.909" x2="-134.635" y1="273.131" y2="274.506" gradientTransform="matrix(0.146967,-0.634054,0.700252,0.06533976,-511.35118,89.760787)" gradientUnits="userSpaceOnUse" xlink:href="#linearGradient3877"/><linearGradient id="linearGradient4085" x1="-203.842" x2="-120.47" y1="321.436" y2="273.301" gradientTransform="matrix(-0.532949,-0.373612,-0.477402,0.516435,-273.30308,-1.394647)" gradientUnits="userSpaceOnUse" xlink:href="#linearGradient3877"/><linearGradient id="linearGradient4088" x1="-162.56" x2="-118.898" y1="167.366" y2="161.924" gradientTransform="matrix(0.257687,-0.100623,-0.08345452,-0.223716,-286.45022,215.32694)" gradientUnits="userSpaceOnUse" xlink:href="#linearGradient2783"/><linearGradient id="linearGradient4101" x1="22.229" x2="27.946" y1="-5.352" y2="-5.352" gradientTransform="matrix(0.72129724,0,0,0.84297528,-50.843561,381.97642)" gradientUnits="userSpaceOnUse" xlink:href="#linearGradient2803"/><linearGradient id="linearGradient4104" x1="-71.805" x2="-56.4" y1="128.929" y2="224.421" gradientTransform="matrix(1.070628,0,0,0.72293199,431.64389,-189.64768)" gradientUnits="userSpaceOnUse" xlink:href="#linearGradient2837"/><linearGradient id="linearGradient4107" x1="98.411" x2="166.33" y1="185.689" y2="155.598" gradientTransform="matrix(0.72809225,0,0,0.62299621,-509.61939,-83.862018)" gradientUnits="userSpaceOnUse" xlink:href="#linearGradient3969"/><linearGradient id="linearGradient4110" x1="-53.739" x2="-53.739" y1="145.543" y2="146.014" gradientTransform="matrix(0.72809225,0,0,0.62299621,-349.3476,-130.75155)" gradientUnits="userSpaceOnUse" xlink:href="#linearGradient3737"/><linearGradient id="linearGradient4113" x1="-44.999" x2="-45.04" y1="132.863" y2="137" gradientTransform="matrix(0.72809225,0,0,0.62299621,-349.3476,-130.75155)" gradientUnits="userSpaceOnUse" xlink:href="#linearGradient3725"/><linearGradient id="linearGradient4116" x1="-40.932" x2="-44.212" y1="154.805" y2="142.563" gradientTransform="matrix(0.72809225,0,0,0.62299621,-349.3476,-130.75155)" gradientUnits="userSpaceOnUse" xlink:href="#linearGradient2816"/><linearGradient id="linearGradient4119" x1="190.035" x2="208.715" y1="90.227" y2="90.227" gradientTransform="matrix(0.72809225,0,0,0.62299621,-526.83799,-47.040756)" gradientUnits="userSpaceOnUse" xlink:href="#linearGradient2783"/><linearGradient id="linearGradient4122" x1="254.013" x2="183.396" y1="282.733" y2="212.116" gradientTransform="matrix(0.72809225,0,0,0.62299621,-509.61939,-99.070914)" gradientUnits="userSpaceOnUse" xlink:href="#linearGradient2584"/><linearGradient id="linearGradient4125" x1="190.035" x2="207.948" y1="90.227" y2="90.227" gradientTransform="matrix(0.6073932,0,0,0.24179608,-502.81978,-48.98515)" gradientUnits="userSpaceOnUse" xlink:href="#linearGradient2783"/><linearGradient id="linearGradient4128" x1="190.035" x2="207.948" y1="90.227" y2="90.227" gradientTransform="matrix(0.66454822,0,0,0.26454709,-514.28169,9.2078335)" gradientUnits="userSpaceOnUse" xlink:href="#linearGradient2783"/><linearGradient id="linearGradient4136" x1="64.57" x2="35.684" y1="130.185" y2="-19.841" gradientTransform="matrix(0.30177103,0,0,0.30177103,8.9573457,7.9995939)" gradientUnits="userSpaceOnUse" xlink:href="#linearGradient4786"/><linearGradient id="linearGradient4140" x1="28.245" x2="28.245" y1="60.446" y2="68.225" gradientTransform="matrix(0.4933,-0.71665,-0.71665,-0.4933,94.393,72.494)" gradientUnits="userSpaceOnUse" xlink:href="#linearGradient9910"/><radialGradient id="radialGradient4142" cx="63.912" cy="115.709" r="63.912" fx="15.773" fy="115.709" gradientTransform="matrix(1,0,0,0.197802,0,92.82166)" gradientUnits="userSpaceOnUse" xlink:href="#linearGradient3291"/><linearGradient id="linearGradient4144" x1="-52.954" x2="-49.313" y1="182.07" y2="182.063" gradientTransform="matrix(0.577491,1.44816,-1.045249,0.603475,204.2967,164.9777)" gradientUnits="userSpaceOnUse" xlink:href="#linearGradient2334"/><linearGradient id="linearGradient4146" x1="-52.533" x2="-52.219" y1="212.261" y2="210.21" gradientTransform="matrix(0.603475,1.045249,-1.045249,0.603475,205.9786,145.2615)" gradientUnits="userSpaceOnUse" xlink:href="#linearGradient3794"/><radialGradient id="radialGradient4148" cx="-151.734" cy="289.98" r=".633" fx="-151.626" fy="290.385" gradientUnits="userSpaceOnUse" xlink:href="#linearGradient3916"/><linearGradient id="linearGradient4150" x1="-151.526" x2="-151.822" y1="289.94" y2="290.109" gradientUnits="userSpaceOnUse" xlink:href="#linearGradient2904"/><linearGradient id="linearGradient4152" x1="190.035" x2="208.772" y1="90.227" y2="90.227" gradientTransform="matrix(0.912724,0,0,0.424636,-6.403316,173.8027)" gradientUnits="userSpaceOnUse" xlink:href="#linearGradient2783"/><linearGradient id="linearGradient4154" x1="-161.946" x2="-115.944" y1="164.395" y2="160.493" gradientTransform="matrix(0.192457,0.327601,0.333345,-0.189141,-161.4249,355.0328)" gradientUnits="userSpaceOnUse" xlink:href="#linearGradient2783"/><linearGradient id="linearGradient4156" x1="-135.909" x2="-134.635" y1="273.131" y2="274.506" gradientUnits="userSpaceOnUse" xlink:href="#linearGradient3877"/><linearGradient id="linearGradient4158" x1="-128.984" x2="-129.631" y1="289.605" y2="280.785" gradientTransform="matrix(0.5,-0.866025,-0.866025,-0.5,175.1251,303.2683)" gradientUnits="userSpaceOnUse" xlink:href="#linearGradient3877"/></defs><g id="layer1"><g id="g4160"><path style="fill:url(#linearGradient4136);fill-opacity:1;fill-rule:evenodd;stroke:none" id="path4759" d="m 30.014489,18.316993 c -1.062234,0.0024 -2.241512,0.08615 -3.537872,0.250955 -1.46202,0.185882 -3.086504,0.469785 -4.873383,0.851845 -1.597381,0.361425 -3.113501,0.758962 -4.548417,1.192654 -1.407858,0.423381 -2.748044,0.898453 -4.02052,1.425084 -2.544966,1.032626 -3.8580133,1.87936 -3.9392333,2.540228 -0.08122,0.681535 0.527901,1.06876 1.8274573,1.161689 0.676845,0.05163 1.489047,0.0207 2.436642,-0.0929 0.324888,-0.03097 0.487345,-0.07233 0.487345,-0.123955 -8e-6,-0.06196 -0.162457,-0.08258 -0.487345,-0.06193 -0.379037,0.03098 -0.785092,0.04645 -1.218275,0.04645 -0.406117,-0.01032 -0.812258,-0.03095 -1.218367,-0.06193 -0.703924,-0.05162 -1.0558873,-0.216829 -1.0558873,-0.495641 0,-0.774459 1.3537493,-1.693575 4.0611643,-2.757179 1.245403,-0.49565 2.585496,-0.950002 4.020427,-1.36306 1.434916,-0.413038 3.005223,-0.810576 4.710896,-1.192654 3.384244,-0.722823 6.01043,-1.063543 7.87856,-1.022249 1.976385,0.06198 2.964608,0.521482 2.96464,1.378544 -3.2e-5,0.144576 -0.0406,0.294308 -0.121843,0.449192 -0.05413,0.154902 -0.148877,0.314946 -0.28422,0.480157 -1.164213,1.40437 -5.035871,4.17175 -11.614859,8.302226 -0.05413,0.05162 -0.108255,0.09813 -0.162386,0.139438 -0.02707,0.03097 -0.04067,0.06192 -0.04067,0.0929 -1.5e-5,0.11359 0.176013,0.170407 0.527991,0.170407 0.379021,0 0.717411,-0.0826 1.015242,-0.247821 0.406102,-0.258155 0.974605,-0.578247 1.705627,-0.960316 0.758057,-0.38207 1.692188,-0.84158 2.802247,-1.378545 1.326606,-0.64022 2.65322,-1.23915 3.979873,-1.796768 1.326608,-0.55761 2.680264,-1.08941 4.061072,-1.595398 3.411301,-1.208158 6.321794,-2.008482 8.731415,-2.400884 0.568519,-0.09293 1.055896,-0.13934 1.462044,-0.139349 0.622666,9e-6 0.934015,0.108396 0.934053,0.325237 -3.8e-5,0.175551 -0.149024,0.371791 -0.446801,0.588632 l -5.888532,4.553854 c -0.433214,0.340769 -0.961205,0.800279 -1.583871,1.378544 -0.622736,0.578269 -1.286047,1.208141 -1.989941,1.889667 -0.676883,0.691855 -1.353758,1.39917 -2.030578,2.122005 -0.676884,0.733159 -1.286009,1.414691 -1.827462,2.044592 -0.541508,0.64022 -0.988262,1.192736 -1.340201,1.657421 -0.30694,0.448712 -0.480968,0.759196 -0.522096,0.93147 -3.673838,1.477332 -6.12853,3.671059 -7.303569,6.532434 1.21479,-1.839783 4.66595,-4.55064 7.777833,-5.81118 0.0023,0.0015 0.0047,0.0031 0.007,0.0046 0.162417,0.103254 0.352016,0.191012 0.568635,0.263305 0.216564,0.07227 0.473727,0.108371 0.771566,0.10838 0.730975,-9e-6 1.813906,-0.216779 3.24886,-0.650473 1.278044,-0.397936 2.154069,-0.738412 2.628053,-1.021326 7.053757,-3.514235 0.998388,-2.810077 -6.911879,0.263027 0.01509,-0.158831 0.08934,-0.355257 0.222747,-0.589277 0.2978,-0.464686 0.730983,-1.017205 1.299564,-1.657423 0.595609,-0.640228 1.285962,-1.332072 2.071138,-2.075557 0.812196,-0.73316 1.624477,-1.450789 2.436735,-2.152971 0.812188,-0.702182 1.583769,-1.347613 2.314799,-1.936208 0.758041,-0.588593 1.380738,-1.05326 1.868106,-1.394025 0.947556,-0.691852 1.908643,-1.368227 2.88335,-2.029109 0.97462,-0.671199 1.949374,-1.352727 2.924079,-2.044589 0.05413,-0.0413 0.08115,-0.09287 0.08119,-0.154833 0.02707,-0.06195 0.0406,-0.123922 0.04068,-0.185888 -3.9e-5,-0.144557 -0.02722,-0.283975 -0.08128,-0.418225 -0.0542,-0.14456 -0.270734,-0.299449 -0.64974,-0.464675 -0.297846,-0.134234 -0.582153,-0.237461 -0.852856,-0.309753 -0.270773,-0.0826 -0.595685,-0.108478 -0.97469,-0.07751 -2.382557,0.144575 -5.766753,1.037812 -10.152722,2.67967 -1.624476,0.598925 -3.113547,1.177226 -4.467226,1.734839 -1.326654,0.557618 -2.544991,1.104886 -3.65501,1.641846 -0.243683,0.165222 -0.460326,0.247823 -0.649824,0.24782 -0.108317,3e-6 -0.16241,-0.02061 -0.162387,-0.06193 -2.3e-5,-0.07228 0.09468,-0.165286 0.284221,-0.278879 2.165907,-1.383705 3.858048,-2.550532 5.076407,-3.500547 1.245387,-0.960329 2.057582,-1.719307 2.436642,-2.276928 0.135344,-0.237492 0.203101,-0.474985 0.203125,-0.712497 0,-0.547244 -0.311349,-0.986131 -0.934031,-1.31658 -0.676875,-0.40271 -1.611006,-0.614418 -2.802245,-0.635077 -0.131875,-0.0024 -0.265656,-0.0033 -0.401357,-0.003 z m 10.824665,15.665238 c 0.627628,0.0072 0.0099,0.569225 -2.479954,1.847273 -0.021,0.0078 -0.04262,0.01596 -0.06479,0.02441 -2.81574,1.063592 -4.792093,1.595391 -5.929178,1.5954 -0.350127,-6e-6 -0.558735,-0.101136 -0.625862,-0.303489 4.421037,-1.938423 8.158999,-3.17428 9.099781,-3.163606 z"/><g id="g2980" transform="matrix(-0.91846259,-0.07889219,-0.07889219,0.91846259,75.554164,16.172051)"><path style="fill:#e7e7e7;fill-rule:evenodd;stroke:#7d7d7d" id="path9903" d="m 61.249,22.577 c -0.883,-0.607 -3.381,1.585 -5.632,4.855 -2.251,3.271 -2.719,6.861 -2.525,6.994 0.217,0.15 3.381,-1.584 5.632,-4.855 2.251,-3.27 3.407,-6.386 2.525,-6.994 z"/><g id="g9975" transform="matrix(-0.79601,0.082581,0.082581,0.79601,83.595,-7.6556)"><path style="fill:none;stroke:#3465a4;stroke-width:1.25349998" id="path9905" d="m 32.085889,57.685642 c 5.659041,-1.883956 13.873815,-1.479601 18.348211,0.903153 1.228632,0.654285 2.087743,1.41766 2.512332,2.232366" transform="matrix(-0.56251,-0.81719,0.82507,-0.56793,-15.221,83.887)"/><path style="fill:#729fcf;fill-rule:evenodd;stroke:#3465a4;stroke-width:1.25349998" id="path9907" d="m 36.364517,54.473244 c 0.492291,0.823974 -0.391117,1.699791 -1.973146,1.956192 -1.515586,0.245633 -3.136253,-0.166118 -3.69754,-0.939407 L 33.5,54.9375 z" transform="matrix(-0.56251,-0.81719,0.82507,-0.56793,-14.286,81.453)"/></g><path style="fill:url(#linearGradient4140);fill-rule:evenodd;stroke:#3465a4" id="path9898" d="m 66.816,20.12 c -2.942,4.155 -5.833,7.753 -8.219,10.339 L 54.73,27.797 c 1.761,-3.551 4.504,-8.145 7.83,-12.977 6.004,-8.7224 11.958,-15.367 14.313,-16.156 0.072,-0.0225 0.169,-0.0526 0.234,-0.0641 0.046,-0.007 0.114,-0.0046 0.156,-0.0056 0.066,3e-4 0.151,0.014 0.208,0.0299 0.013,0.0044 0.056,0.0045 0.069,0.0099 0.013,0.006 0.039,0.0286 0.051,0.0355 0.006,0.0038 0.02,0.0138 0.026,0.0178 0.006,0.004 0.02,0.0135 0.026,0.0177 0.011,0.0089 0.041,0.0257 0.051,0.0355 0.01,0.0104 0.025,0.0498 0.034,0.0611 0.035,0.0469 0.078,0.1213 0.102,0.1831 0.014,0.03966 0.041,0.10225 0.051,0.14756 0.012,0.06498 0.019,0.16627 0.023,0.24196 0.105,2.4812 -3.977,10.415 -9.981,19.137 -0.373,0.543 -0.735,1.084 -1.107,1.609 z"/><path style="fill:url(#linearGradient3011);fill-rule:evenodd;stroke:#3465a4" id="path9893" d="m 71.382,13.929 c -0.747,1.048 -1.521,2.054 -2.256,3.001 l -5.415,-3.727 c 0.885,-1.457 1.868,-2.99 2.93,-4.532 5.066,-7.3594 10.293,-12.825 12.543,-13.309 0.02,-0.0036 0.067,-0.0122 0.087,-0.0153 0.019,-0.0027 0.068,-0.0136 0.086,-0.0156 0.046,-0.0038 0.113,-0.0068 0.156,-0.0056 0.017,9e-4 0.053,0.0083 0.069,0.01 0.049,0.0064 0.121,0.0238 0.164,0.0376 0.015,0.0051 0.056,0.0041 0.07,0.01 0.02,0.0095 0.058,0.0419 0.077,0.0532 0.006,0.004 0.02,0.0136 0.026,0.0178 0.006,0.0042 0.019,0.0133 0.025,0.0177 0.018,0.0139 0.062,0.0377 0.078,0.0533 0.01,0.0108 0.024,0.0494 0.034,0.061 0.028,0.036 0.07,0.0969 0.094,0.1398 0.007,0.0147 0.027,0.0456 0.034,0.0611 0.016,0.0395 0.037,0.1034 0.05,0.1476 0.005,0.018 0.012,0.0678 0.016,0.0865 0.004,0.0192 0.013,0.0668 0.017,0.0866 0.351,2.2746 -2.888,9.1084 -7.954,16.468 -0.315,0.457 -0.616,0.91 -0.931,1.353 z"/><path style="fill:url(#linearGradient3009);fill-rule:evenodd;stroke:#3465a4" id="path9888" d="m 78.925,1.0932 -3.816,-2.6267 c 2.025,-2.2648 3.853,-3.6636 4.839,-3.6072 0.006,5e-4 0.03,0.0015 0.037,0.0021 0.006,8e-4 0.03,0.0014 0.036,0.0022 0.006,0.001 0.031,0.0011 0.037,0.0022 0.035,0.0072 0.092,0.028 0.124,0.0398 0.006,0.0021 0.021,0.0155 0.026,0.0177 0.005,0.0024 0.031,-3e-4 0.037,0.0022 0.005,0.0026 0.02,0.015 0.025,0.0177 0.005,0.0029 0.021,0.0148 0.026,0.0178 0.005,0.0031 0.021,0.0145 0.026,0.0177 0.005,0.0032 0.021,0.0144 0.026,0.0178 0.004,0.0034 0.021,0.0142 0.025,0.0177 0.005,0.0037 0.022,0.014 0.026,0.0178 0.004,0.0039 0.011,0.0293 0.015,0.0333 0.004,0.0042 0.022,0.0135 0.026,0.0178 0.023,0.0262 0.062,0.0718 0.082,0.1021 0.003,0.0052 0.012,0.0281 0.015,0.0334 0.003,0.0053 0.012,0.0278 0.015,0.0333 0.003,0.0056 0.012,0.0276 0.015,0.0333 0.405,0.9014 -0.249,3.108 -1.642,5.808 z"/><path style="opacity:.35714004;fill:none;stroke:url(#linearGradient3015);stroke-linecap:round;stroke-linejoin:round" id="path9930" d="m 69.708,14.318 c -0.189,0.268 -0.378,0.517 -0.566,0.779 l -3.75,-2.584 c 0.513,-0.779 1.237,-2.048 1.777,-2.8576 6.211,-9.3166 12.3,-13.972 12.553,-13.798 0.28,0.1912 -2.164,7.477 -8.497,16.279 -0.372,0.516 -1.16,1.676 -1.517,2.182 z"/></g></g><path id="path1987" d="m -399.83992,-136.77916 0,-2.79471 0,2.79471 z" style="fill:#fff;fill-opacity:.75688076;fill-rule:nonzero;stroke:none"/><path id="path1747" d="m -352.04362,-252.10316 0,-2.79471 0,2.79471 z" style="fill:#fff;fill-opacity:.75688076;fill-rule:nonzero;stroke:none"/><rect id="rect1327" width="1" height="0" x="-363.191" y="-224.36" style="opacity:.57786889;fill:#fff;fill-opacity:1;fill-rule:nonzero;stroke:none"/></g><metadata id="metadata31"/></svg>