<svg xmlns="http://www.w3.org/2000/svg" xmlns:ns1="http://sozi.baierouge.fr" xmlns:svg="http://www.w3.org/2000/svg" xmlns:xlink="http://www.w3.org/1999/xlink" id="svg9121" viewBox="0 0 48 48"><defs id="defs3"><radialGradient id="radialGradient6981" cx="26.782" cy="42.343" r="14.407" gradientTransform="matrix(1 0 0 .28221 1.6792e-15 30.394)" gradientUnits="userSpaceOnUse"><stop id="stop6977" offset="0" style="stop-color:#000"/><stop id="stop6979" offset="1" style="stop-color:#000;stop-opacity:0"/></radialGradient><linearGradient id="linearGradient9910"><stop id="stop9912" offset="0" style="stop-color:#729fcf"/><stop id="stop9918" offset=".316" style="stop-color:#a5bfda"/><stop id="stop9914" offset="1" style="stop-color:#376ca4"/></linearGradient><linearGradient id="linearGradient3009" x1="28.245" x2="28.245" y1="60.446" y2="68.225" gradientTransform="matrix(.49330 -.71665 -.71665 -.49330 94.393 72.494)" gradientUnits="userSpaceOnUse" xlink:href="#linearGradient9910"/><linearGradient id="linearGradient3011" x1="28.245" x2="28.245" y1="60.446" y2="68.225" gradientTransform="matrix(.49330 -.71665 -.71665 -.49330 94.393 72.494)" gradientUnits="userSpaceOnUse"><stop id="stop9922" offset="0" style="stop-color:#5b90c8"/><stop id="stop9924" offset=".316" style="stop-color:#8fb0d1"/><stop id="stop9926" offset="1" style="stop-color:#34679d"/></linearGradient><linearGradient id="linearGradient3015" x1="55.876" x2="38.061" y1="62.402" y2="62.827" gradientTransform="matrix(.49330 -.71665 -.71665 -.49330 94.393 72.494)" gradientUnits="userSpaceOnUse"><stop id="stop9954" offset="0" style="stop-color:#fff"/><stop id="stop9956" offset="1" style="stop-color:#fff;stop-opacity:0"/></linearGradient></defs><g id="layer1"><path id="path6973" d="m41.189 42.343a14.407 4.0659 0 1 1 -28.815 0 14.407 4.0659 0 1 1 28.815 0z" transform="matrix(1.3384 0 0 1 -20.926 -3.409)" style="opacity:.3;color:#000;fill:url(#radialGradient6981)"/><g id="g2980" transform="matrix(.98858 .15073 -.15073 .98858 -42.778 -3.1617)"><path id="path9903" d="m61.249 22.577c-0.883-0.607-3.381 1.585-5.632 4.855-2.251 3.271-2.719 6.861-2.525 6.994 0.217 0.15 3.381-1.584 5.632-4.855 2.251-3.27 3.407-6.386 2.525-6.994z" style="fill-rule:evenodd;stroke:#7d7d7d;fill:#e7e7e7"/><g id="g9975" transform="matrix(-.79601 .082581 .082581 .79601 83.595 -7.6556)"><path id="path9905" d="m32.086 57.686a13.062 5.5 0 0 1 20.86 3.135" transform="matrix(-.56251 -.81719 .82507 -.56793 -15.221 83.887)" style="stroke:#3465a4;stroke-width:1.2535;fill:none"/><path id="path9907" d="m36.365 54.473a3 1.5625 0 0 1 -5.671 1.017l2.806-0.552z" transform="matrix(-.56251 -.81719 .82507 -.56793 -14.286 81.453)" style="fill-rule:evenodd;stroke:#3465a4;stroke-width:1.2535;fill:#729fcf"/></g><path id="path9898" d="m66.816 20.12c-2.942 4.155-5.833 7.753-8.219 10.339l-3.867-2.662c1.761-3.551 4.504-8.145 7.83-12.977 6.004-8.7224 11.958-15.367 14.313-16.156 0.072-0.0225 0.169-0.0526 0.234-0.0641 0.046-0.007 0.114-0.0046 0.156-0.0056 0.066 0.0003 0.151 0.014 0.208 0.0299 0.013 0.0044 0.056 0.0045 0.069 0.0099 0.013 0.006 0.039 0.0286 0.051 0.0355 0.006 0.0038 0.02 0.0138 0.026 0.0178s0.02 0.0135 0.026 0.0177c0.011 0.0089 0.041 0.0257 0.051 0.0355 0.01 0.0104 0.025 0.0498 0.034 0.0611 0.035 0.0469 0.078 0.1213 0.102 0.1831 0.014 0.03966 0.041 0.10225 0.051 0.14756 0.012 0.06498 0.019 0.16627 0.023 0.24196 0.105 2.4812-3.977 10.415-9.981 19.137-0.373 0.543-0.735 1.084-1.107 1.609z" style="fill-rule:evenodd;stroke:#3465a4;fill:url(#linearGradient3009)"/><path id="path9893" d="m71.382 13.929c-0.747 1.048-1.521 2.054-2.256 3.001l-5.415-3.727c0.885-1.457 1.868-2.99 2.93-4.532 5.066-7.3594 10.293-12.825 12.543-13.309 0.02-0.0036 0.067-0.0122 0.087-0.0153 0.019-0.0027 0.068-0.0136 0.086-0.0156 0.046-0.0038 0.113-0.0068 0.156-0.0056 0.017 0.0009 0.053 0.0083 0.069 0.01 0.049 0.0064 0.121 0.0238 0.164 0.0376 0.015 0.0051 0.056 0.0041 0.07 0.01 0.02 0.0095 0.058 0.0419 0.077 0.0532 0.006 0.004 0.02 0.0136 0.026 0.0178s0.019 0.0133 0.025 0.0177c0.018 0.0139 0.062 0.0377 0.078 0.0533 0.01 0.0108 0.024 0.0494 0.034 0.061 0.028 0.036 0.07 0.0969 0.094 0.1398 0.007 0.0147 0.027 0.0456 0.034 0.0611 0.016 0.0395 0.037 0.1034 0.05 0.1476 0.005 0.018 0.012 0.0678 0.016 0.0865 0.004 0.0192 0.013 0.0668 0.017 0.0866 0.351 2.2746-2.888 9.1084-7.954 16.468-0.315 0.457-0.616 0.91-0.931 1.353z" style="fill-rule:evenodd;stroke:#3465a4;fill:url(#linearGradient3011)"/><path id="path9888" d="m78.925 1.0932l-3.816-2.6267c2.025-2.2648 3.853-3.6636 4.839-3.6072 0.006 0.0005 0.03 0.0015 0.037 0.0021 0.006 0.0008 0.03 0.0014 0.036 0.0022 0.006 0.001 0.031 0.0011 0.037 0.0022 0.035 0.0072 0.092 0.028 0.124 0.0398 0.006 0.0021 0.021 0.0155 0.026 0.0177 0.005 0.0024 0.031-0.0003 0.037 0.0022 0.005 0.0026 0.02 0.015 0.025 0.0177 0.005 0.0029 0.021 0.0148 0.026 0.0178 0.005 0.0031 0.021 0.0145 0.026 0.0177s0.021 0.0144 0.026 0.0178c0.004 0.0034 0.021 0.0142 0.025 0.0177 0.005 0.0037 0.022 0.014 0.026 0.0178 0.004 0.0039 0.011 0.0293 0.015 0.0333 0.004 0.0042 0.022 0.0135 0.026 0.0178 0.023 0.0262 0.062 0.0718 0.082 0.1021 0.003 0.0052 0.012 0.0281 0.015 0.0334s0.012 0.0278 0.015 0.0333c0.003 0.0056 0.012 0.0276 0.015 0.0333 0.405 0.9014-0.249 3.108-1.642 5.808z" style="fill-rule:evenodd;stroke:#3465a4;fill:url(#linearGradient3009)"/><path id="path9930" d="m69.708 14.318c-0.189 0.268-0.378 0.517-0.566 0.779l-3.75-2.584c0.513-0.779 1.237-2.048 1.777-2.8576 6.211-9.3166 12.3-13.972 12.553-13.798 0.28 0.1912-2.164 7.477-8.497 16.279-0.372 0.516-1.16 1.676-1.517 2.182z" style="opacity:.35714;stroke-linejoin:round;stroke:url(#linearGradient3015);stroke-linecap:round;fill:none"/></g></g><metadata/></svg>